<svg width="40" height="40" viewBox="0 0 40 40" fill="none" xmlns="http://www.w3.org/2000/svg">
<!-- В тёмной теме браузера вкладки почти чёрные — там квадрат светлый. -->
<style>@media (prefers-color-scheme: dark) { path { fill: #f4f2ee; } }</style>
<path d="M36 0C38.2091 5.15405e-07 40 1.79086 40 4V36C40 38.2091 38.2091 40 36 40H4C1.79086 40 3.22133e-08 38.2091 0 36V4C5.15413e-07 1.79086 1.79086 3.22128e-08 4 0H36ZM22.1367 6.18262C20.1747 6.18262 18.3655 6.52383 16.71 7.20703C15.0632 7.88151 13.6965 8.83227 12.6104 10.0586C11.533 11.2761 10.8545 12.6999 10.5742 14.3291C10.2589 16.3174 10.6571 17.8985 11.7695 19.0723C12.882 20.246 14.5249 21.1083 16.6973 21.6602L19.5088 22.3965C20.4459 22.6242 21.2297 22.8868 21.8604 23.1846C22.4995 23.4735 22.9638 23.8239 23.2529 24.2354C23.542 24.647 23.6344 25.1555 23.5293 25.7598C23.4242 26.408 23.1351 26.9822 22.6621 27.4814C22.1892 27.9806 21.5715 28.3701 20.8096 28.6504C20.0563 28.9307 19.193 29.0713 18.2207 29.0713C17.2398 29.0713 16.3861 28.9218 15.6592 28.624C14.9321 28.3174 14.3845 27.8662 14.0166 27.2705C13.6576 26.6661 13.5257 25.9128 13.6221 25.0107H8.11719C7.84564 26.9466 8.0472 28.5718 8.72168 29.8857C9.40493 31.1908 10.4954 32.1761 11.9932 32.8418C13.491 33.5075 15.3258 33.8408 17.498 33.8408C19.6878 33.8408 21.6151 33.5123 23.2793 32.8555C24.9436 32.1897 26.2886 31.2567 27.3135 30.0566C28.3383 28.8479 28.9912 27.4201 29.2715 25.7734C29.4554 24.6522 29.42 23.6572 29.166 22.79C28.912 21.923 28.4734 21.1696 27.8516 20.5303C27.2385 19.891 26.4762 19.352 25.5654 18.9141C24.6633 18.4762 23.6473 18.126 22.5176 17.8633L20.2051 17.2852C19.6533 17.1538 19.1321 16.9964 18.6416 16.8125C18.1511 16.6198 17.7263 16.3956 17.3672 16.1416C17.0168 15.8788 16.7582 15.5681 16.5918 15.209C16.4342 14.85 16.4037 14.4298 16.5 13.9482C16.5964 13.3614 16.8461 12.8442 17.249 12.3975C17.6606 11.9421 18.2076 11.587 18.8906 11.333C19.5738 11.0702 20.3801 10.9385 21.3086 10.9385C22.6749 10.9385 23.6956 11.2365 24.3701 11.832C25.0533 12.4277 25.3729 13.2733 25.3291 14.3682H30.7822C31.0275 12.739 30.8347 11.3112 30.2041 10.085C29.5735 8.85872 28.5704 7.90393 27.1953 7.2207C25.8201 6.52874 24.1338 6.18265 22.1367 6.18262Z" fill="#141414"/>
</svg>
